<?xml version="1.0" encoding="UTF-8" standalone="no"?>
<!DOCTYPE svg PUBLIC "-//W3C//DTD SVG 1.1//EN"
 "http://www.w3.org/Graphics/SVG/1.1/DTD/svg11.dtd">
<!-- Generated by graphviz version 7.0.6 (20230106.0513)
 -->
<!-- Title: dependency&#45;cruiser output Pages: 1 -->
<svg width="487pt" height="378pt"
 viewBox="0.00 0.00 487.00 378.00" xmlns="http://www.w3.org/2000/svg" xmlns:xlink="http://www.w3.org/1999/xlink">
<g id="graph0" class="graph" transform="scale(1 1) rotate(0) translate(4 374)">
<title>dependency&#45;cruiser output</title>
<polygon fill="white" stroke="none" points="-4,4 -4,-374 483,-374 483,4 -4,4"/>
<g id="clust1" class="cluster">
<title>cluster_app</title>
<path fill="#ffffff" stroke="black" stroke-width="2" d="M20,-26C20,-26 459,-26 459,-26 465,-26 471,-32 471,-38 471,-38 471,-350 471,-350 471,-356 465,-362 459,-362 459,-362 20,-362 20,-362 14,-362 8,-356 8,-350 8,-350 8,-38 8,-38 8,-32 14,-26 20,-26"/>
<text text-anchor="middle" x="239.5" y="-350.8" font-family="Helvetica,sans-Serif" font-weight="bold" font-size="9.00">app</text>
</g>
<g id="clust2" class="cluster">
<title>cluster_app/cuisine</title>
<path fill="#ffffff" stroke="black" stroke-width="2" d="M157,-284C157,-284 280,-284 280,-284 286,-284 292,-290 292,-296 292,-296 292,-324 292,-324 292,-330 286,-336 280,-336 280,-336 157,-336 157,-336 151,-336 145,-330 145,-324 145,-324 145,-296 145,-296 145,-290 151,-284 157,-284"/>
<text text-anchor="middle" x="218.5" y="-324.8" font-family="Helvetica,sans-Serif" font-weight="bold" font-size="9.00">cuisine</text>
</g>
<g id="clust3" class="cluster">
<title>cluster_app/middleware</title>
<path fill="#ffffff" stroke="black" stroke-width="2" d="M312,-104C312,-104 381,-104 381,-104 387,-104 393,-110 393,-116 393,-116 393,-144 393,-144 393,-150 387,-156 381,-156 381,-156 312,-156 312,-156 306,-156 300,-150 300,-144 300,-144 300,-116 300,-116 300,-110 306,-104 312,-104"/>
<text text-anchor="middle" x="346.5" y="-144.8" font-family="Helvetica,sans-Serif" font-weight="bold" font-size="9.00">middleware</text>
</g>
<g id="clust4" class="cluster">
<title>cluster_app/restaurant</title>
<path fill="#ffffff" stroke="black" stroke-width="2" d="M229,-34C229,-34 451,-34 451,-34 457,-34 463,-40 463,-46 463,-46 463,-74 463,-74 463,-80 457,-86 451,-86 451,-86 229,-86 229,-86 223,-86 217,-80 217,-74 217,-74 217,-46 217,-46 217,-40 223,-34 229,-34"/>
<text text-anchor="middle" x="340" y="-74.8" font-family="Helvetica,sans-Serif" font-weight="bold" font-size="9.00">restaurant</text>
</g>
<g id="clust5" class="cluster">
<title>cluster_app/user</title>
<path fill="#ffffff" stroke="black" stroke-width="2" d="M157,-164C157,-164 369.5,-164 369.5,-164 375.5,-164 381.5,-170 381.5,-176 381.5,-176 381.5,-204 381.5,-204 381.5,-210 375.5,-216 369.5,-216 369.5,-216 157,-216 157,-216 151,-216 145,-210 145,-204 145,-204 145,-176 145,-176 145,-170 151,-164 157,-164"/>
<text text-anchor="middle" x="263.25" y="-204.8" font-family="Helvetica,sans-Serif" font-weight="bold" font-size="9.00">user</text>
</g>
<g id="clust6" class="cluster">
<title>cluster_app/vote&#45;link</title>
<path fill="#ffffff" stroke="black" stroke-width="2" d="M157,-224C157,-224 280,-224 280,-224 286,-224 292,-230 292,-236 292,-236 292,-264 292,-264 292,-270 286,-276 280,-276 280,-276 157,-276 157,-276 151,-276 145,-270 145,-264 145,-264 145,-236 145,-236 145,-230 151,-224 157,-224"/>
<text text-anchor="middle" x="218.5" y="-264.8" font-family="Helvetica,sans-Serif" font-weight="bold" font-size="9.00">vote&#45;link</text>
</g>
<!-- app/client.js -->
<g id="node1" class="node">
<title>app/client.js</title>
<g id="a_node1"><a xlink:href="app/client.js" xlink:title="client.js">
<path fill="#ffffcc" stroke="black" d="M367.5,-246C367.5,-246 325.5,-246 325.5,-246 322.5,-246 319.5,-243 319.5,-240 319.5,-240 319.5,-234 319.5,-234 319.5,-231 322.5,-228 325.5,-228 325.5,-228 367.5,-228 367.5,-228 370.5,-228 373.5,-231 373.5,-234 373.5,-234 373.5,-240 373.5,-240 373.5,-243 370.5,-246 367.5,-246"/>
<text text-anchor="start" x="331" y="-234.8" font-family="Helvetica,sans-Serif" font-size="9.00">client.js</text>
</a>
</g>
</g>
<!-- app/user/utils.js -->
<g id="node2" class="node">
<title>app/user/utils.js</title>
<g id="a_node2"><a xlink:href="app/user/utils.js" xlink:title="utils.js">
<path fill="#ffffcc" stroke="black" d="M367.5,-190C367.5,-190 325.5,-190 325.5,-190 322.5,-190 319.5,-187 319.5,-184 319.5,-184 319.5,-178 319.5,-178 319.5,-175 322.5,-172 325.5,-172 325.5,-172 367.5,-172 367.5,-172 370.5,-172 373.5,-175 373.5,-178 373.5,-178 373.5,-184 373.5,-184 373.5,-187 370.5,-190 367.5,-190"/>
<text text-anchor="start" x="333.5" y="-178.8" font-family="Helvetica,sans-Serif" font-size="9.00">utils.js</text>
</a>
</g>
</g>
<!-- app/client.js&#45;&gt;app/user/utils.js -->
<g id="edge1" class="edge">
<title>app/client.js&#45;&gt;app/user/utils.js</title>
<path fill="none" stroke="#000000" stroke-width="2" stroke-opacity="0.200000" d="M346.5,-227.86C346.5,-218.24 346.5,-208.63 346.5,-199.02"/>
<polygon fill="#000000" fill-opacity="0.200000" stroke="#000000" stroke-width="2" stroke-opacity="0.200000" points="348.6,-199.21 346.5,-193.21 344.4,-199.21 348.6,-199.21"/>
</g>
<!-- app/config.js -->
<g id="node3" class="node">
<title>app/config.js</title>
<g id="a_node3"><a xlink:href="app/config.js" xlink:title="config.js">
<path fill="#ffffcc" stroke="black" d="M449,-130C449,-130 407,-130 407,-130 404,-130 401,-127 401,-124 401,-124 401,-118 401,-118 401,-115 404,-112 407,-112 407,-112 449,-112 449,-112 452,-112 455,-115 455,-118 455,-118 455,-124 455,-124 455,-127 452,-130 449,-130"/>
<text text-anchor="start" x="411" y="-118.8" font-family="Helvetica,sans-Serif" font-size="9.00">config.js</text>
</a>
</g>
</g>
<!-- app/user/utils.js&#45;&gt;app/config.js -->
<g id="edge21" class="edge">
<title>app/user/utils.js&#45;&gt;app/config.js</title>
<path fill="none" stroke="#000000" stroke-width="2" stroke-opacity="0.200000" d="M371.19,-171.68C378.53,-168.25 386.41,-163.96 393,-159 401.17,-152.85 408.88,-144.51 414.9,-137.21"/>
<polygon fill="#000000" fill-opacity="0.200000" stroke="#000000" stroke-width="2" stroke-opacity="0.200000" points="416.35,-138.77 418.42,-132.76 413.05,-136.17 416.35,-138.77"/>
</g>
<!-- app/cuisine/controller.js -->
<g id="node4" class="node">
<title>app/cuisine/controller.js</title>
<g id="a_node4"><a xlink:href="app/cuisine/controller.js" xlink:title="controller.js">
<path fill="#ffffcc" stroke="black" d="M278,-310C278,-310 226,-310 226,-310 223,-310 220,-307 220,-304 220,-304 220,-298 220,-298 220,-295 223,-292 226,-292 226,-292 278,-292 278,-292 281,-292 284,-295 284,-298 284,-298 284,-304 284,-304 284,-307 281,-310 278,-310"/>
<text text-anchor="start" x="228" y="-298.8" font-family="Helvetica,sans-Serif" font-size="9.00">controller.js</text>
</a>
</g>
</g>
<!-- app/cuisine/controller.js&#45;&gt;app/client.js -->
<g id="edge2" class="edge">
<title>app/cuisine/controller.js&#45;&gt;app/client.js</title>
<path fill="none" stroke="#000000" stroke-width="2" stroke-opacity="0.200000" d="M270.81,-291.7C277.58,-287.97 285.28,-283.5 292,-279 304.48,-270.65 317.76,-260.24 327.97,-251.87"/>
<polygon fill="#000000" fill-opacity="0.200000" stroke="#000000" stroke-width="2" stroke-opacity="0.200000" points="329.2,-253.57 332.47,-248.13 326.51,-250.34 329.2,-253.57"/>
</g>
<!-- app/cuisine/routes.js -->
<g id="node5" class="node">
<title>app/cuisine/routes.js</title>
<g id="a_node5"><a xlink:href="app/cuisine/routes.js" xlink:title="routes.js">
<path fill="#ffffcc" stroke="black" d="M201,-310C201,-310 159,-310 159,-310 156,-310 153,-307 153,-304 153,-304 153,-298 153,-298 153,-295 156,-292 159,-292 159,-292 201,-292 201,-292 204,-292 207,-295 207,-298 207,-298 207,-304 207,-304 207,-307 204,-310 201,-310"/>
<text text-anchor="start" x="162.5" y="-298.8" font-family="Helvetica,sans-Serif" font-size="9.00">routes.js</text>
</a>
</g>
</g>
<!-- app/cuisine/routes.js&#45;&gt;app/cuisine/controller.js -->
<g id="edge3" class="edge">
<title>app/cuisine/routes.js&#45;&gt;app/cuisine/controller.js</title>
<path fill="none" stroke="#000000" stroke-width="2" stroke-opacity="0.200000" d="M207.46,-301C208.6,-301 209.74,-301 210.89,-301"/>
<polygon fill="#000000" fill-opacity="0.200000" stroke="#000000" stroke-width="2" stroke-opacity="0.200000" points="210.77,-303.1 216.77,-301 210.77,-298.9 210.77,-303.1"/>
</g>
<!-- app/index.js -->
<g id="node6" class="node">
<title>app/index.js</title>
<g id="a_node6"><a xlink:href="app/index.js" xlink:title="index.js">
<path fill="#ffffcc" stroke="black" d="M64,-168C64,-168 22,-168 22,-168 19,-168 16,-165 16,-162 16,-162 16,-156 16,-156 16,-153 19,-150 22,-150 22,-150 64,-150 64,-150 67,-150 70,-153 70,-156 70,-156 70,-162 70,-162 70,-165 67,-168 64,-168"/>
<text text-anchor="start" x="27" y="-156.8" font-family="Helvetica,sans-Serif" font-size="9.00">index.js</text>
</a>
</g>
</g>
<!-- app/server.js -->
<g id="node7" class="node">
<title>app/server.js</title>
<g id="a_node7"><a xlink:href="app/server.js" xlink:title="server.js">
<path fill="#ffffcc" stroke="black" d="M131,-168C131,-168 89,-168 89,-168 86,-168 83,-165 83,-162 83,-162 83,-156 83,-156 83,-153 86,-150 89,-150 89,-150 131,-150 131,-150 134,-150 137,-153 137,-156 137,-156 137,-162 137,-162 137,-165 134,-168 131,-168"/>
<text text-anchor="start" x="92.5" y="-156.8" font-family="Helvetica,sans-Serif" font-size="9.00">server.js</text>
</a>
</g>
</g>
<!-- app/index.js&#45;&gt;app/server.js -->
<g id="edge4" class="edge">
<title>app/index.js&#45;&gt;app/server.js</title>
<path fill="none" stroke="#000000" stroke-width="2" stroke-opacity="0.200000" d="M70.44,-159C71.58,-159 72.74,-159 73.9,-159"/>
<polygon fill="#000000" fill-opacity="0.200000" stroke="#000000" stroke-width="2" stroke-opacity="0.200000" points="73.77,-161.1 79.77,-159 73.77,-156.9 73.77,-161.1"/>
</g>
<!-- app/server.js&#45;&gt;app/config.js -->
<g id="edge10" class="edge">
<title>app/server.js&#45;&gt;app/config.js</title>
<path fill="none" stroke="#000000" stroke-width="2" stroke-opacity="0.200000" d="M126.89,-149.6C132.48,-146.56 138.9,-143.37 145,-141 211.34,-115.29 229.42,-109.96 300,-101 341,-95.79 353.12,-90.14 393,-101 397.87,-102.33 402.76,-104.55 407.25,-107.04"/>
<polygon fill="#000000" fill-opacity="0.200000" stroke="#000000" stroke-width="2" stroke-opacity="0.200000" points="406.02,-108.75 412.23,-110.1 408.21,-105.17 406.02,-108.75"/>
</g>
<!-- app/server.js&#45;&gt;app/cuisine/routes.js -->
<g id="edge11" class="edge">
<title>app/server.js&#45;&gt;app/cuisine/routes.js</title>
<path fill="none" stroke="#000000" stroke-width="2" stroke-opacity="0.200000" d="M111.45,-168.39C112.93,-189.98 119.14,-243.99 145,-279 147,-281.7 149.43,-284.16 152.08,-286.38"/>
<polygon fill="#000000" fill-opacity="0.200000" stroke="#000000" stroke-width="2" stroke-opacity="0.200000" points="150.85,-288.08 156.94,-289.89 153.31,-284.68 150.85,-288.08"/>
</g>
<!-- app/middleware/decode&#45;user.js -->
<g id="node8" class="node">
<title>app/middleware/decode&#45;user.js</title>
<g id="a_node8"><a xlink:href="app/middleware/decode-user.js" xlink:title="decode&#45;user.js">
<path fill="#ffffcc" stroke="black" d="M379,-130C379,-130 314,-130 314,-130 311,-130 308,-127 308,-124 308,-124 308,-118 308,-118 308,-115 311,-112 314,-112 314,-112 379,-112 379,-112 382,-112 385,-115 385,-118 385,-118 385,-124 385,-124 385,-127 382,-130 379,-130"/>
<text text-anchor="start" x="316" y="-118.8" font-family="Helvetica,sans-Serif" font-size="9.00">decode&#45;user.js</text>
</a>
</g>
</g>
<!-- app/server.js&#45;&gt;app/middleware/decode&#45;user.js -->
<g id="edge12" class="edge">
<title>app/server.js&#45;&gt;app/middleware/decode&#45;user.js</title>
<path fill="none" stroke="#000000" stroke-width="2" stroke-opacity="0.200000" d="M137.44,-154.71C176.57,-148.37 250.47,-136.4 298.83,-128.56"/>
<polygon fill="#000000" fill-opacity="0.200000" stroke="#000000" stroke-width="2" stroke-opacity="0.200000" points="298.98,-130.67 304.57,-127.63 298.31,-126.52 298.98,-130.67"/>
</g>
<!-- app/restaurant/routes.js -->
<g id="node12" class="node">
<title>app/restaurant/routes.js</title>
<g id="a_node12"><a xlink:href="app/restaurant/routes.js" xlink:title="routes.js">
<path fill="#ffffcc" stroke="black" d="M273,-60C273,-60 231,-60 231,-60 228,-60 225,-57 225,-54 225,-54 225,-48 225,-48 225,-45 228,-42 231,-42 231,-42 273,-42 273,-42 276,-42 279,-45 279,-48 279,-48 279,-54 279,-54 279,-57 276,-60 273,-60"/>
<text text-anchor="start" x="234.5" y="-48.8" font-family="Helvetica,sans-Serif" font-size="9.00">routes.js</text>
</a>
</g>
</g>
<!-- app/server.js&#45;&gt;app/restaurant/routes.js -->
<g id="edge13" class="edge">
<title>app/server.js&#45;&gt;app/restaurant/routes.js</title>
<path fill="none" stroke="#000000" stroke-width="2" stroke-opacity="0.200000" d="M113.28,-149.75C117.29,-135.28 126.97,-107.27 145,-91 164.86,-73.09 193.52,-62.92 216.03,-57.32"/>
<polygon fill="#000000" fill-opacity="0.200000" stroke="#000000" stroke-width="2" stroke-opacity="0.200000" points="216.32,-59.41 221.69,-56.01 215.37,-55.32 216.32,-59.41"/>
</g>
<!-- app/user/routes.js -->
<g id="node13" class="node">
<title>app/user/routes.js</title>
<g id="a_node13"><a xlink:href="app/user/routes.js" xlink:title="routes.js">
<path fill="#ffffcc" stroke="black" d="M201,-190C201,-190 159,-190 159,-190 156,-190 153,-187 153,-184 153,-184 153,-178 153,-178 153,-175 156,-172 159,-172 159,-172 201,-172 201,-172 204,-172 207,-175 207,-178 207,-178 207,-184 207,-184 207,-187 204,-190 201,-190"/>
<text text-anchor="start" x="162.5" y="-178.8" font-family="Helvetica,sans-Serif" font-size="9.00">routes.js</text>
</a>
</g>
</g>
<!-- app/server.js&#45;&gt;app/user/routes.js -->
<g id="edge14" class="edge">
<title>app/server.js&#45;&gt;app/user/routes.js</title>
<path fill="none" stroke="#000000" stroke-width="2" stroke-opacity="0.200000" d="M137.49,-167.57C139.86,-168.34 142.29,-169.12 144.72,-169.91"/>
<polygon fill="#000000" fill-opacity="0.200000" stroke="#000000" stroke-width="2" stroke-opacity="0.200000" points="143.69,-171.78 150.04,-171.63 144.98,-167.79 143.69,-171.78"/>
</g>
<!-- app/vote&#45;link/routes.js -->
<g id="node14" class="node">
<title>app/vote&#45;link/routes.js</title>
<g id="a_node14"><a xlink:href="app/vote-link/routes.js" xlink:title="routes.js">
<path fill="#ffffcc" stroke="black" d="M201,-250C201,-250 159,-250 159,-250 156,-250 153,-247 153,-244 153,-244 153,-238 153,-238 153,-235 156,-232 159,-232 159,-232 201,-232 201,-232 204,-232 207,-235 207,-238 207,-238 207,-244 207,-244 207,-247 204,-250 201,-250"/>
<text text-anchor="start" x="162.5" y="-238.8" font-family="Helvetica,sans-Serif" font-size="9.00">routes.js</text>
</a>
</g>
</g>
<!-- app/server.js&#45;&gt;app/vote&#45;link/routes.js -->
<g id="edge15" class="edge">
<title>app/server.js&#45;&gt;app/vote&#45;link/routes.js</title>
<path fill="none" stroke="#000000" stroke-width="2" stroke-opacity="0.200000" d="M114.65,-168.42C119.89,-181.06 130.54,-203.67 145,-219 147.6,-221.76 150.62,-224.34 153.77,-226.68"/>
<polygon fill="#000000" fill-opacity="0.200000" stroke="#000000" stroke-width="2" stroke-opacity="0.200000" points="152.53,-228.39 158.68,-230.02 154.89,-224.91 152.53,-228.39"/>
</g>
<!-- app/middleware/decode&#45;user.js&#45;&gt;app/config.js -->
<g id="edge5" class="edge">
<title>app/middleware/decode&#45;user.js&#45;&gt;app/config.js</title>
<path fill="none" stroke="#000000" stroke-width="2" stroke-opacity="0.200000" d="M385.39,-121C387.47,-121 389.55,-121 391.62,-121"/>
<polygon fill="#000000" fill-opacity="0.200000" stroke="#000000" stroke-width="2" stroke-opacity="0.200000" points="391.5,-123.1 397.5,-121 391.5,-118.9 391.5,-123.1"/>
</g>
<!-- app/restaurant/controller.js -->
<g id="node9" class="node">
<title>app/restaurant/controller.js</title>
<g id="a_node9"><a xlink:href="app/restaurant/controller.js" xlink:title="controller.js">
<path fill="#ffffcc" stroke="black" d="M372.5,-60C372.5,-60 320.5,-60 320.5,-60 317.5,-60 314.5,-57 314.5,-54 314.5,-54 314.5,-48 314.5,-48 314.5,-45 317.5,-42 320.5,-42 320.5,-42 372.5,-42 372.5,-42 375.5,-42 378.5,-45 378.5,-48 378.5,-48 378.5,-54 378.5,-54 378.5,-57 375.5,-60 372.5,-60"/>
<text text-anchor="start" x="322.5" y="-48.8" font-family="Helvetica,sans-Serif" font-size="9.00">controller.js</text>
</a>
</g>
</g>
<!-- app/restaurant/controller.js&#45;&gt;app/config.js -->
<g id="edge6" class="edge">
<title>app/restaurant/controller.js&#45;&gt;app/config.js</title>
<path fill="none" stroke="#000000" stroke-width="2" stroke-opacity="0.200000" d="M378.58,-55.45C383.9,-57.37 388.99,-60.11 393,-64 401.38,-72.12 395.45,-78.74 401,-89 404.02,-94.58 408.07,-100.14 412.07,-105.02"/>
<polygon fill="#000000" fill-opacity="0.200000" stroke="#000000" stroke-width="2" stroke-opacity="0.200000" points="410.28,-106.15 415.79,-109.31 413.45,-103.4 410.28,-106.15"/>
</g>
<!-- app/restaurant/utils.js -->
<g id="node10" class="node">
<title>app/restaurant/utils.js</title>
<g id="a_node10"><a xlink:href="app/restaurant/utils.js" xlink:title="utils.js">
<path fill="#ffffcc" stroke="black" d="M449,-60C449,-60 407,-60 407,-60 404,-60 401,-57 401,-54 401,-54 401,-48 401,-48 401,-45 404,-42 407,-42 407,-42 449,-42 449,-42 452,-42 455,-45 455,-48 455,-48 455,-54 455,-54 455,-57 452,-60 449,-60"/>
<text text-anchor="start" x="415" y="-48.8" font-family="Helvetica,sans-Serif" font-size="9.00">utils.js</text>
</a>
</g>
</g>
<!-- app/restaurant/controller.js&#45;&gt;app/restaurant/utils.js -->
<g id="edge7" class="edge">
<title>app/restaurant/controller.js&#45;&gt;app/restaurant/utils.js</title>
<path fill="none" stroke="#000000" stroke-width="2" stroke-opacity="0.200000" d="M378.92,-51C383.2,-51 387.61,-51 391.95,-51"/>
<polygon fill="#000000" fill-opacity="0.200000" stroke="#000000" stroke-width="2" stroke-opacity="0.200000" points="391.65,-53.1 397.65,-51 391.65,-48.9 391.65,-53.1"/>
</g>
<!-- got -->
<g id="node11" class="node">
<title>got</title>
<g id="a_node11"><a xlink:title="got">
<path fill="#ffffcc" stroke="red" d="M449,-18C449,-18 407,-18 407,-18 404,-18 401,-15 401,-12 401,-12 401,-6 401,-6 401,-3 404,0 407,0 407,0 449,0 449,0 452,0 455,-3 455,-6 455,-6 455,-12 455,-12 455,-15 452,-18 449,-18"/>
<text text-anchor="middle" x="428" y="-6.8" font-family="Helvetica,sans-Serif" font-size="9.00" fill="red">got</text>
</a>
</g>
</g>
<!-- app/restaurant/controller.js&#45;&gt;got -->
<g id="edge8" class="edge">
<title>app/restaurant/controller.js&#45;&gt;got</title>
<path fill="none" stroke="#000000" stroke-width="2" stroke-opacity="0.200000" d="M365.14,-41.68C375.77,-36.06 389.5,-28.81 401.31,-22.57"/>
<polygon fill="#000000" fill-opacity="0.200000" stroke="#000000" stroke-width="2" stroke-opacity="0.200000" points="402.13,-24.51 406.45,-19.85 400.17,-20.8 402.13,-24.51"/>
</g>
<!-- app/restaurant/routes.js&#45;&gt;app/restaurant/controller.js -->
<g id="edge9" class="edge">
<title>app/restaurant/routes.js&#45;&gt;app/restaurant/controller.js</title>
<path fill="none" stroke="#000000" stroke-width="2" stroke-opacity="0.200000" d="M279.26,-51C287.35,-51 296.44,-51 305.24,-51"/>
<polygon fill="#000000" fill-opacity="0.200000" stroke="#000000" stroke-width="2" stroke-opacity="0.200000" points="305.23,-53.1 311.23,-51 305.23,-48.9 305.23,-53.1"/>
</g>
<!-- app/user/controller.js -->
<g id="node15" class="node">
<title>app/user/controller.js</title>
<g id="a_node15"><a xlink:href="app/user/controller.js" xlink:title="controller.js">
<path fill="#ffffcc" stroke="black" d="M278,-190C278,-190 226,-190 226,-190 223,-190 220,-187 220,-184 220,-184 220,-178 220,-178 220,-175 223,-172 226,-172 226,-172 278,-172 278,-172 281,-172 284,-175 284,-178 284,-178 284,-184 284,-184 284,-187 281,-190 278,-190"/>
<text text-anchor="start" x="228" y="-178.8" font-family="Helvetica,sans-Serif" font-size="9.00">controller.js</text>
</a>
</g>
</g>
<!-- app/user/routes.js&#45;&gt;app/user/controller.js -->
<g id="edge20" class="edge">
<title>app/user/routes.js&#45;&gt;app/user/controller.js</title>
<path fill="none" stroke="#000000" stroke-width="2" stroke-opacity="0.200000" d="M207.46,-181C208.6,-181 209.74,-181 210.89,-181"/>
<polygon fill="#000000" fill-opacity="0.200000" stroke="#000000" stroke-width="2" stroke-opacity="0.200000" points="210.77,-183.1 216.77,-181 210.77,-178.9 210.77,-183.1"/>
</g>
<!-- app/vote&#45;link/controller.js -->
<g id="node16" class="node">
<title>app/vote&#45;link/controller.js</title>
<g id="a_node16"><a xlink:href="app/vote-link/controller.js" xlink:title="controller.js">
<path fill="#ffffcc" stroke="black" d="M278,-250C278,-250 226,-250 226,-250 223,-250 220,-247 220,-244 220,-244 220,-238 220,-238 220,-235 223,-232 226,-232 226,-232 278,-232 278,-232 281,-232 284,-235 284,-238 284,-238 284,-244 284,-244 284,-247 281,-250 278,-250"/>
<text text-anchor="start" x="228" y="-238.8" font-family="Helvetica,sans-Serif" font-size="9.00">controller.js</text>
</a>
</g>
</g>
<!-- app/user/routes.js&#45;&gt;app/vote&#45;link/controller.js -->
<g id="edge19" class="edge">
<title>app/user/routes.js&#45;&gt;app/vote&#45;link/controller.js</title>
<path fill="none" stroke="#000000" stroke-width="2" stroke-opacity="0.200000" d="M188.74,-190.35C195.68,-198.43 206.38,-210.17 217,-219 220.27,-221.72 223.9,-224.39 227.53,-226.87"/>
<polygon fill="#000000" fill-opacity="0.200000" stroke="#000000" stroke-width="2" stroke-opacity="0.200000" points="226.17,-228.49 232.35,-230.01 228.47,-224.97 226.17,-228.49"/>
</g>
<!-- app/vote&#45;link/routes.js&#45;&gt;app/vote&#45;link/controller.js -->
<g id="edge23" class="edge">
<title>app/vote&#45;link/routes.js&#45;&gt;app/vote&#45;link/controller.js</title>
<path fill="none" stroke="#000000" stroke-width="2" stroke-opacity="0.200000" d="M207.46,-241C208.6,-241 209.74,-241 210.89,-241"/>
<polygon fill="#000000" fill-opacity="0.200000" stroke="#000000" stroke-width="2" stroke-opacity="0.200000" points="210.77,-243.1 216.77,-241 210.77,-238.9 210.77,-243.1"/>
</g>
<!-- app/user/controller.js&#45;&gt;app/client.js -->
<g id="edge16" class="edge">
<title>app/user/controller.js&#45;&gt;app/client.js</title>
<path fill="none" stroke="#000000" stroke-width="2" stroke-opacity="0.200000" d="M262.79,-190.41C271.87,-198.76 286.04,-210.85 300,-219 303.57,-221.08 307.43,-223.03 311.34,-224.81"/>
<polygon fill="#000000" fill-opacity="0.200000" stroke="#000000" stroke-width="2" stroke-opacity="0.200000" points="310.22,-226.62 316.57,-227.04 311.87,-222.75 310.22,-226.62"/>
</g>
<!-- app/user/controller.js&#45;&gt;app/user/utils.js -->
<g id="edge18" class="edge">
<title>app/user/controller.js&#45;&gt;app/user/utils.js</title>
<path fill="none" stroke="#000000" stroke-width="2" stroke-opacity="0.200000" d="M284.32,-181C292.63,-181 301.67,-181 310.18,-181"/>
<polygon fill="#000000" fill-opacity="0.200000" stroke="#000000" stroke-width="2" stroke-opacity="0.200000" points="310.12,-183.1 316.12,-181 310.12,-178.9 310.12,-183.1"/>
</g>
<!-- app/user/controller.js&#45;&gt;app/config.js -->
<g id="edge17" class="edge">
<title>app/user/controller.js&#45;&gt;app/config.js</title>
<path fill="none" stroke="#000000" stroke-width="2" stroke-opacity="0.200000" d="M272.91,-190.48C301.83,-202.74 356.02,-219.84 393,-196 412.44,-183.47 420.89,-156.82 424.47,-138.9"/>
<polygon fill="#000000" fill-opacity="0.200000" stroke="#000000" stroke-width="2" stroke-opacity="0.200000" points="426.47,-139.7 425.42,-133.43 422.33,-138.99 426.47,-139.7"/>
</g>
<!-- app/vote&#45;link/controller.js&#45;&gt;app/client.js -->
<g id="edge22" class="edge">
<title>app/vote&#45;link/controller.js&#45;&gt;app/client.js</title>
<path fill="none" stroke="#000000" stroke-width="2" stroke-opacity="0.200000" d="M284.32,-239.65C292.63,-239.29 301.67,-238.9 310.18,-238.53"/>
<polygon fill="#000000" fill-opacity="0.200000" stroke="#000000" stroke-width="2" stroke-opacity="0.200000" points="310.22,-240.63 316.12,-238.27 310.04,-236.43 310.22,-240.63"/>
</g>
</g>
</svg>
